<svg xmlns="http://www.w3.org/2000/svg" width="32" height="26" viewBox="0 0 32 26"><defs><style>.a{fill:#fff;}</style></defs><path class="a" d="M3383.75,318.04a.642.642,0,0,0,1.106-.254c2.617-10.82-3.846-20.433-14.433-20.86a84.433,84.433,0,0,1-15.864-1.823.906.906,0,0,0-1.1,1.057c1.478,7.108,2.324,14.135,7.663,18.452,5.048,4.084,12.791,4,19.642,6.416a.831.831,0,0,0,1.042-1.129c-3.347-6.782-9.268-10.5-15.875-14.174a.233.233,0,0,1,.159-.432C3371.993,306.392,3376.825,309.994,3383.75,318.04Z" transform="translate(-3353.438 -295.078)"/></svg>